<?xml version="1.0" encoding="UTF-8"?>
<svg xmlns="http://www.w3.org/2000/svg" xmlns:xlink="http://www.w3.org/1999/xlink" width="400pt" height="57.25pt" viewBox="0 0 400 57.25" version="1.1">
<defs>
<clipPath id="clip1">
  <path d="M 6 0 L 57 0 L 57 57.25 L 6 57.25 Z M 6 0 "/>
</clipPath>
</defs>
<g id="surface1">
<g clip-path="url(#clip1)" clip-rule="nonzero">
<path style=" stroke:none;fill-rule:nonzero;fill:rgb(5.899048%,82.699585%,88.198853%);fill-opacity:1;" d="M 54.96875 20.027344 L 54.984375 20.253906 L 54.96875 20.253906 Z M 55.679688 20.253906 L 56.652344 9.148438 L 54.96875 7.953125 L 54.96875 7.917969 L 45.082031 1.242188 C 42.617188 -0.417969 39.429688 -0.417969 36.964844 1.246094 L 27.234375 7.8125 L 27.234375 20.546875 L 40.476563 11.609375 C 40.804688 11.386719 41.242188 11.386719 41.570313 11.609375 L 54.378906 20.253906 L 44.59375 20.253906 C 43.023438 35.082031 30.699219 46.195313 15.714844 46.195313 C 12.554688 46.195313 9.445313 45.6875 6.453125 44.679688 L 6.453125 56.152344 C 9.527344 56.882813 12.640625 57.25 15.714844 57.25 C 36.128906 57.25 53.214844 41.84375 55.535156 21.800781 L 55.554688 21.695313 L 55.613281 21.039063 C 55.636719 20.777344 55.671875 20.519531 55.691406 20.253906 "/>
</g>
<path style=" stroke:none;fill-rule:nonzero;fill:rgb(5.899048%,82.699585%,88.198853%);fill-opacity:1;" d="M 0 20.625 L 12.90625 20.625 L 12.90625 7.714844 L 0 7.714844 Z M 0 20.625 "/>
<path style=" stroke:none;fill-rule:nonzero;fill:rgb(100%,100%,100%);fill-opacity:1;" d="M 75.375 15.664063 L 80.527344 15.664063 C 81.007813 15.664063 81.460938 15.90625 81.726563 16.308594 L 90.636719 29.863281 L 99.632813 16.304688 C 99.898438 15.90625 100.347656 15.664063 100.828125 15.664063 L 105.984375 15.664063 C 106.773438 15.664063 107.417969 16.304688 107.417969 17.097656 L 107.417969 44.347656 C 107.417969 45.140625 106.773438 45.78125 105.984375 45.78125 L 101.621094 45.78125 C 100.832031 45.78125 100.1875 45.140625 100.1875 44.347656 L 100.1875 27.195313 L 90.636719 41.824219 L 81.171875 27.195313 L 81.171875 44.347656 C 81.171875 45.140625 80.527344 45.78125 79.734375 45.78125 L 75.375 45.78125 C 74.585938 45.78125 73.941406 45.140625 73.941406 44.347656 L 73.941406 17.097656 C 73.941406 16.304688 74.585938 15.664063 75.375 15.664063 "/>
<path style=" stroke:none;fill-rule:nonzero;fill:rgb(100%,100%,100%);fill-opacity:1;" d="M 128.714844 40.101563 C 133.707031 40.101563 137.753906 35.800781 137.753906 30.636719 C 137.710938 25.472656 133.707031 21.386719 128.714844 21.386719 C 123.769531 21.386719 119.722656 25.472656 119.722656 30.636719 C 119.722656 35.800781 123.769531 40.101563 128.714844 40.101563 M 128.714844 15.191406 C 137.96875 15.191406 144.980469 22.03125 144.9375 30.636719 C 144.894531 39.371094 137.882813 46.253906 128.714844 46.253906 C 119.507813 46.253906 112.496094 39.242188 112.496094 30.636719 C 112.496094 21.902344 119.550781 15.191406 128.714844 15.191406 "/>
<path style=" stroke:none;fill-rule:nonzero;fill:rgb(100%,100%,100%);fill-opacity:1;" d="M 157.847656 16.257813 L 171.054688 34.46875 L 171.054688 17.097656 C 171.054688 16.304688 171.695313 15.664063 172.488281 15.664063 L 176.847656 15.664063 C 177.640625 15.664063 178.28125 16.304688 178.28125 17.097656 L 178.28125 44.347656 C 178.28125 45.140625 177.640625 45.78125 176.847656 45.78125 L 171.488281 45.78125 C 171.027344 45.78125 170.59375 45.5625 170.324219 45.1875 L 157.242188 27.066406 L 157.242188 44.347656 C 157.242188 45.140625 156.601563 45.78125 155.808594 45.78125 L 151.449219 45.78125 C 150.65625 45.78125 150.015625 45.140625 150.015625 44.347656 L 150.015625 17.097656 C 150.015625 16.304688 150.65625 15.664063 151.449219 15.664063 L 156.683594 15.664063 C 157.144531 15.664063 157.574219 15.886719 157.847656 16.257813 "/>
<path style=" stroke:none;fill-rule:nonzero;fill:rgb(100%,100%,100%);fill-opacity:1;" d="M 184.824219 15.664063 L 206.96875 15.664063 C 207.761719 15.664063 208.40625 16.304688 208.40625 17.097656 L 208.40625 19.996094 C 208.40625 20.789063 207.761719 21.429688 206.96875 21.429688 L 192.054688 21.429688 L 192.054688 27.925781 L 204.730469 27.925781 C 205.523438 27.925781 206.164063 28.570313 206.164063 29.359375 L 206.164063 32.085938 C 206.164063 32.878906 205.523438 33.519531 204.730469 33.519531 L 192.054688 33.519531 L 192.054688 40.015625 L 206.96875 40.015625 C 207.761719 40.015625 208.40625 40.660156 208.40625 41.453125 L 208.40625 44.347656 C 208.40625 45.140625 207.761719 45.78125 206.96875 45.78125 L 186.261719 45.78125 C 185.46875 45.78125 184.824219 45.140625 184.824219 44.347656 "/>
<path style=" stroke:none;fill-rule:nonzero;fill:rgb(100%,100%,100%);fill-opacity:1;" d="M 214.511719 15.664063 L 219.195313 15.664063 C 219.683594 15.664063 220.136719 15.914063 220.402344 16.324219 L 227.164063 26.851563 L 233.96875 16.320313 C 234.234375 15.910156 234.6875 15.664063 235.171875 15.664063 L 239.855469 15.664063 C 240.988281 15.664063 241.671875 16.917969 241.058594 17.875 L 230.777344 33.863281 L 230.777344 44.347656 C 230.777344 45.140625 230.136719 45.78125 229.34375 45.78125 L 224.984375 45.78125 C 224.191406 45.78125 223.550781 45.140625 223.550781 44.347656 L 223.550781 33.863281 L 213.304688 17.871094 C 212.691406 16.917969 213.378906 15.664063 214.511719 15.664063 "/>
<path style=" stroke:none;fill-rule:nonzero;fill:rgb(100%,100%,100%);fill-opacity:1;" d="M 259.734375 15.191406 C 265.714844 15.191406 269.589844 17.296875 272.214844 20.183594 L 268.949219 23.476563 C 268.410156 24.023438 267.550781 24.035156 266.96875 23.53125 C 265.371094 22.140625 263.214844 21.035156 260.078125 21 C 254.828125 20.957031 250.742188 25.300781 250.742188 30.808594 C 250.742188 36.316406 254.828125 40.402344 260.078125 40.402344 C 262.402344 40.402344 264.121094 39.757813 265.5 38.8125 L 265.5 34.121094 L 258.714844 34.121094 C 257.925781 34.121094 257.28125 33.480469 257.28125 32.6875 L 257.28125 30.222656 C 257.28125 29.429688 257.925781 28.785156 258.714844 28.785156 L 272.128906 28.785156 L 272.128906 40.113281 C 272.128906 40.441406 272.027344 40.757813 271.820313 41.011719 C 269.722656 43.574219 265.546875 46.296875 259.734375 46.296875 C 250.828125 46.296875 243.511719 39.972656 243.511719 30.808594 C 243.511719 21.6875 250.960938 15.191406 259.734375 15.191406 "/>
<path style=" stroke:none;fill-rule:nonzero;fill:rgb(100%,100%,100%);fill-opacity:1;" d="M 311.324219 15.664063 L 332.882813 15.664063 C 334.070313 15.664063 335.03125 16.628906 335.03125 17.816406 L 335.03125 19.363281 C 335.03125 20.550781 334.070313 21.515625 332.882813 21.515625 L 325.695313 21.515625 L 325.695313 44.347656 C 325.695313 45.140625 325.054688 45.78125 324.261719 45.78125 L 319.902344 45.78125 C 319.109375 45.78125 318.46875 45.140625 318.46875 44.347656 L 318.46875 21.515625 L 311.324219 21.515625 C 310.136719 21.515625 309.175781 20.550781 309.175781 19.363281 L 309.175781 17.816406 C 309.175781 16.628906 310.136719 15.664063 311.324219 15.664063 "/>
<path style=" stroke:none;fill-rule:nonzero;fill:rgb(100%,100%,100%);fill-opacity:1;" d="M 352.417969 40.101563 C 357.410156 40.101563 361.453125 35.800781 361.453125 30.636719 C 361.410156 25.472656 357.410156 21.386719 352.417969 21.386719 C 347.46875 21.386719 343.425781 25.472656 343.425781 30.636719 C 343.425781 35.800781 347.46875 40.101563 352.417969 40.101563 M 352.417969 15.191406 C 361.667969 15.191406 368.683594 22.03125 368.636719 30.636719 C 368.59375 39.371094 361.582031 46.253906 352.417969 46.253906 C 343.210938 46.253906 336.195313 39.242188 336.195313 30.636719 C 336.195313 21.902344 343.253906 15.191406 352.417969 15.191406 "/>
<path style=" stroke:none;fill-rule:nonzero;fill:rgb(100%,100%,100%);fill-opacity:1;" d="M 387.914063 30.550781 L 374.839844 30.550781 L 380.945313 27.71875 L 380.945313 21.515625 L 387.914063 21.515625 C 391.015625 21.515625 392.691406 23.410156 392.691406 26.035156 C 392.691406 28.484375 391.144531 30.550781 387.914063 30.550781 M 393.335938 35.371094 C 397.296875 33.90625 399.617188 30.207031 399.617188 26.035156 C 399.617188 20.179688 395.273438 15.664063 388.644531 15.664063 L 373.71875 15.664063 L 373.71875 44.347656 C 373.71875 45.140625 374.359375 45.78125 375.152344 45.78125 L 379.511719 45.78125 C 380.300781 45.78125 380.945313 45.140625 380.945313 44.347656 L 380.945313 36.402344 L 385.808594 36.402344 L 391.917969 45.167969 C 392.1875 45.554688 392.628906 45.78125 393.097656 45.78125 L 399.378906 45.78125 C 399.878906 45.78125 400.175781 45.21875 399.886719 44.808594 "/>
<path style=" stroke:none;fill-rule:nonzero;fill:rgb(100%,100%,100%);fill-opacity:1;" d="M 293.542969 34.46875 L 281.609375 34.46875 L 281.648438 34.460938 L 281.644531 34.460938 L 289.367188 31.476563 L 292.824219 23.882813 L 297.644531 34.46875 Z M 309.371094 43.753906 L 296.992188 16.507813 C 296.761719 15.992188 296.25 15.664063 295.6875 15.664063 L 289.960938 15.664063 C 289.398438 15.664063 288.886719 15.992188 288.652344 16.503906 L 276.234375 43.753906 C 275.804688 44.703125 276.496094 45.78125 277.539063 45.78125 L 282 45.78125 C 282.5625 45.78125 283.074219 45.449219 283.308594 44.9375 L 285.421875 40.234375 L 300.222656 40.234375 L 302.339844 44.9375 C 302.570313 45.449219 303.082031 45.78125 303.648438 45.78125 L 308.066406 45.78125 C 309.105469 45.78125 309.800781 44.703125 309.371094 43.753906 "/>
</g>
</svg>
