<svg width="354" height="79" viewBox="0 0 354 79" fill="none" xmlns="http://www.w3.org/2000/svg">
<path d="M32.2403 67.8299C37.1803 67.7999 39.8003 66.1399 39.7803 62.8399L39.7203 52.6299L26.5503 52.7099L26.4903 42.4999L57.1103 42.3099L57.2503 64.3699C57.2803 68.6499 54.9903 71.9599 50.7303 74.2899C46.7903 76.6199 41.8603 77.9699 35.9403 77.9999L21.7803 78.0899C12.5603 78.1499 5.96034 75.5499 2.31034 70.3099C0.980337 68.6699 0.310342 66.6999 0.300342 64.7199L0.00033906 15.6599C-0.0296609 11.3799 1.93034 8.39988 6.20034 5.73988C10.4603 3.07988 15.3903 1.72987 21.3203 1.69987L35.4803 1.60988C41.4103 1.56988 46.3503 2.85988 50.6503 5.13988C54.9403 7.41988 56.9403 10.6999 56.9703 14.9799L57.0303 25.1899L39.5803 25.2999L39.5303 17.0699C39.5103 13.7799 36.8703 12.1499 31.9303 12.1799L24.6903 12.2199C19.7503 12.2499 17.4603 13.9099 17.4803 17.1999L17.7603 62.6399C17.7803 65.9299 20.4203 67.5599 25.3603 67.5299L32.2403 67.8299ZM94.8003 67.1199C89.8603 67.1499 87.2203 65.5199 87.2003 62.2299L86.9203 16.7899C86.9003 13.4999 89.5203 11.8299 94.4603 11.7999L102.36 11.7499C107.3 11.7199 109.61 13.3499 109.63 16.6399L109.91 62.4099C109.93 65.6999 107.64 67.3599 102.7 67.3899L94.8003 67.1199ZM70.0803 63.6499C70.0903 65.9499 70.4403 67.9299 71.7603 69.5699C75.4103 74.8199 82.0203 77.4099 91.2303 77.3499L106.05 77.2599C111.98 77.2199 117.24 75.8699 121.17 73.5399C125.44 71.2099 127.39 67.8999 127.37 63.6199L127.07 14.8899C127.06 12.5899 126.71 10.6099 125.39 8.96988C121.74 3.71988 115.13 1.12988 105.92 1.18988L91.1003 1.27988C85.1703 1.31988 80.2403 2.65989 75.9803 5.31989C71.7203 7.97989 69.7603 10.9599 69.7803 15.2399L70.0803 63.6499ZM158.68 67.0499L158.34 11.4099L172.17 11.3199C177.11 11.2899 179.75 12.9199 179.77 16.2099L180.05 61.9799C180.07 65.2699 177.45 66.9399 172.51 66.9699L158.68 67.0499ZM141.15 1.30988L141.62 77.0399L176.19 76.8299C181.79 76.7999 186.72 75.4499 190.66 73.1199C194.93 70.7899 197.21 67.4799 197.18 63.1999L196.88 14.4699C196.85 10.1899 194.86 6.90988 190.56 4.62988C186.59 2.34988 181.65 1.05988 175.72 1.09988L141.15 1.30988ZM259.42 10.7899L259.36 0.57988L207.67 0.899872L208.14 76.9599L252.92 76.6799L259.78 67.4199L259.77 66.4299L225.53 66.6399L225.38 41.6199L252.38 41.4499L252.32 31.2399L225.32 31.4099L225.19 10.9999L259.42 10.7899ZM291.62 0.379883L267.58 0.529877L288.83 29.3699L300.91 13.1599L291.62 0.379883ZM327.81 49.2199L315.4 65.0999L323.7 76.2399L347.74 76.0899L327.81 49.2199Z" fill="#F8F800"/>
<path d="M347.64 7.28L353.19 0L344.3 0.0500031L332.45 0.119995C326.19 0.159995 320.29 3.16 316.37 8.45L269.66 69.98L264.11 77.26L273 77.21L284.85 77.14C291.11 77.1 297.01 74.1 300.93 68.81L347.64 7.28Z" fill="url(#paint0_linear_17944_68007)"/>
<defs>
<linearGradient id="paint0_linear_17944_68007" x1="263.862" y1="38.9169" x2="353.422" y2="38.3652" gradientUnits="userSpaceOnUse">
<stop stop-color="#00C0FF"/>
<stop offset="1" stop-color="#0067F1"/>
</linearGradient>
</defs>
</svg>
